<svg xmlns="http://www.w3.org/2000/svg" width="1200" height="900" viewBox="0 0 1200 900" role="img" aria-label="Ecouteurs Nomad Pro">
  <defs>
    <linearGradient id="bg" x1="0" y1="0" x2="1" y2="1">
      <stop offset="0%" stop-color="#0f172a" />
      <stop offset="100%" stop-color="#1d4ed8" />
    </linearGradient>
  </defs>
  <rect width="1200" height="900" fill="url(#bg)" />
  <rect x="340" y="280" width="520" height="330" rx="100" fill="#f5f5f5" opacity="0.95" />
  <rect x="400" y="350" width="400" height="200" rx="70" fill="#e5e7eb" />
  <rect x="440" y="170" width="320" height="190" rx="85" fill="#f8fafc" opacity="0.98" />
  <ellipse cx="515" cy="370" rx="50" ry="42" fill="#d1d5db" />
  <ellipse cx="685" cy="370" rx="50" ry="42" fill="#d1d5db" />
  <path d="M470 420c0-35 25-60 55-60v145c-25 0-55-28-55-85z" fill="#f3f4f6" />
  <path d="M730 420c0-35-25-60-55-60v145c25 0 55-28 55-85z" fill="#f3f4f6" />
  <circle cx="600" cy="620" r="12" fill="#22c55e" />
  <text x="600" y="760" text-anchor="middle" fill="#ffffff" font-family="Arial, sans-serif" font-size="48" font-weight="700">Ecouteurs Nomad Pro</text>
</svg>
